# xmcd
#
# Track frame offsets:
#	150
#	16342
#	32843
#	52255
#	66486
#	81334
#	97760
#	116309
#	130803
#	145684
#	162785
#	178664
#	193291
#	210553
#	228362
#	243586
#	259858
#
# Disc length: 3641 seconds
#
# Revision: 1
# Processed by: cddbd v1.5.2PL0 Copyright (c) Steve Scherf et al.
# Submitted via: audiograbber 1.83.01
#
DISCID=ef0e3711
DTITLE=Country Karaoke Classics - CKC52
DYEAR=1900
DGENRE=Karaoke
TTITLE0=Kenny Rogers - Crazy
TTITLE1=Kenny Rogers - Love Will Turn You Around
TTITLE2=Kenny Rogers - Sweet Music Man
TTITLE3=Kenny Rogers and Dottie West - Everytime Two Fools Collide
TTITLE4=Kenny Rogers - I Can't Unlove You
TTITLE5=Kenny Rogers - I Just Dropped In (To See What Contidion My Condition Is
TTITLE5=In)
TTITLE6=Kenny Rogers - Buried Treasure
TTITLE7=Kenny Rogers - I Will Always Love You
TTITLE8=Kenny Rogers - Greatest
TTITLE9=Kenny Rogers - I Don't Need You
TTITLE10=Kenny Rogers - Vows Go Unbroken (Always True To You)
TTITLE11=Kenny Rogers - Share Your Love With Me
TTITLE12=Kenny Rogers and Kim Carnes - Don't Fall In Love With A Dreamer
TTITLE13=Kenny Rogers - Tomb Of The Unknown Love
TTITLE14=Kenny Rogers - Morning Desire
TTITLE15=Kenny Rogers - Wind Beneath My Wings
TTITLE16=Kenny Rogers - Love Or Something Like It
EXTD=
EXTT0=
EXTT1=
EXTT2=
EXTT3=
EXTT4=
EXTT5=
EXTT6=
EXTT7=
EXTT8=
EXTT9=
EXTT10=
EXTT11=
EXTT12=
EXTT13=
EXTT14=
EXTT15=
EXTT16=
PLAYORDER=
